<?xml version="1.0" encoding="utf-8"?>
<!-- Generator: Adobe Illustrator 22.0.1, SVG Export Plug-In . SVG Version: 6.00 Build 0)  -->
<svg version="1.1" id="Layer_1" xmlns="http://www.w3.org/2000/svg" xmlns:xlink="http://www.w3.org/1999/xlink" x="0px" y="0px"
	 viewBox="0 0 144 144" style="enable-background:new 0 0 144 144;" xml:space="preserve">
<style type="text/css">
	.st0{fill:#FFFFFF;}
</style>
<g id="jX4JPa.tif">
	<g>
		<g>
			<path d="M111.6,66.1c0,2.2,0,4.5,0,6.7c-0.1,0.2-0.1,0.5-0.2,0.7c-0.2,1.4-0.3,2.8-0.6,4.1c-1.8,8.9-5.9,16.7-12.5,22.9
				c-10.7,10-23.5,13.7-37.8,11.1c-10.1-1.8-18.5-7-25-15c-8.4-10.4-11.3-22.3-8.9-35.4c1.6-9,5.9-16.6,12.5-22.9
				c6.2-5.9,13.5-9.6,21.9-11.1c1.4-0.3,2.9-0.4,4.4-0.7c2.2,0,4.5,0,6.7,0c0.2,0.1,0.5,0.1,0.7,0.2c1.4,0.2,2.8,0.3,4.2,0.6
				c8.9,1.8,16.6,6,22.8,12.6c5.9,6.2,9.6,13.5,11.1,21.9C111.2,63.2,111.4,64.7,111.6,66.1z M68.7,107c20.5,0,37.1-16.5,37.5-36.7
				c0.4-21.1-16.5-37.9-36.8-38.3c-20.9-0.4-38.2,16.5-38.2,37.6C31.2,90.2,48.1,107,68.7,107z"/>
			<path class="st0" d="M111.6,66.1c-0.2-1.5-0.4-2.9-0.7-4.4c-1.5-8.4-5.2-15.7-11.1-21.9C93.6,33.3,85.9,29.1,77,27.3
				c-1.4-0.3-2.8-0.4-4.2-0.6c-0.2,0-0.5-0.1-0.7-0.2c13.2,0,26.3,0,39.6,0C111.6,39.7,111.6,52.9,111.6,66.1z"/>
			<path d="M84.7,93.7c-10.1-0.4-18.4-3.5-25.6-9.5c-7.6-6.3-12.2-14.4-13.9-24.1c-0.4-2.3-0.5-4.7-0.6-7.1c-0.1-1.1,0.4-2.2,1.2-3
				c0.9-0.9,1.8-1.7,2.6-2.6c2.7-3.1,7.6-2.6,9.9,1c0.4,0.6,0.6,1.2,0.8,1.9c0.5,1.8,1,3.7,1.5,5.6c0.7,2.4,0.1,4.5-1.7,6.3
				c-0.1,0.1-0.2,0.3-0.4,0.4c-1.5,1-1.5,2.1-0.9,3.7c3,7.3,8.2,12.3,15.8,14.7c0.3,0.1,0.8,0,1-0.2c0.6-0.5,1-1,1.6-1.5
				c1.7-1.7,3.8-2.3,6.1-1.7c1.9,0.5,3.9,1,5.8,1.6c3.8,1,5.8,5.2,4.3,8.7c-0.2,0.5-0.6,1.1-1,1.5c-0.7,0.8-1.5,1.4-2.2,2.2
				C87.8,93.1,86.1,93.9,84.7,93.7z"/>
		</g>
	</g>
</g>
</svg>
